<?xml version="1.0" standalone="no"?>
<svg viewBox="0 0 200 200" xmlns="http://www.w3.org/2000/svg">
  <path fill="#FCD02C" d="M36.2,-55.2C46.3,-49.8,53.5,-38.8,55.7,-27.4C57.8,-16,54.9,-4.3,53.5,7.9C52.1,20.1,52.2,32.7,47.1,43.7C42,54.7,31.8,64.1,19,70.5C6.2,76.9,-9.2,80.3,-21.5,75.6C-33.8,70.8,-42.9,58,-47.3,45.3C-51.7,32.6,-51.4,19.9,-55.9,6.4C-60.4,-7.2,-69.8,-21.7,-69.3,-35.4C-68.9,-49.1,-58.5,-62,-45.3,-66C-32.1,-70.1,-16,-65.2,-1.5,-62.9C13,-60.5,26.1,-60.7,36.2,-55.2Z" transform="translate(100 100)" />
</svg>
