<?xml version="1.0" standalone="no"?>
<svg viewBox="0 0 200 200" xmlns="http://www.w3.org/2000/svg">
  <path fill="#FCD02C" d="M44,-68.3C56.6,-60.4,66,-47.4,73.6,-33C81.2,-18.5,87,-2.6,84.6,12C82.3,26.6,71.8,39.9,60.4,51.3C48.9,62.8,36.5,72.4,23.1,74.4C9.7,76.3,-4.6,70.5,-17.8,64.7C-30.9,58.9,-42.8,53.2,-50,43.9C-57.2,34.6,-59.6,21.8,-63.2,8C-66.8,-5.7,-71.7,-20.3,-69.7,-34.9C-67.8,-49.4,-59.1,-63.9,-46.3,-71.7C-33.6,-79.5,-16.8,-80.6,-0.5,-79.8C15.7,-78.9,31.5,-76.2,44,-68.3Z" transform="translate(100 100)" />
</svg>
